<?xml version="1.0" encoding="UTF-8"?>
<!DOCTYPE svg PUBLIC "-//W3C//DTD SVG 1.1//EN" "http://www.w3.org/Graphics/SVG/1.1/DTD/svg11.dtd">
<svg xmlns="http://www.w3.org/2000/svg" version="1.1" width="500px" height="500px" style="shape-rendering:geometricPrecision; text-rendering:geometricPrecision; image-rendering:optimizeQuality; fill-rule:evenodd; clip-rule:evenodd" xmlns:xlink="http://www.w3.org/1999/xlink">
<g><path style="opacity:1" fill="#f6e718" d="M 273.5,19.5 C 272.325,19.281 271.325,19.6143 270.5,20.5C 271.301,23.1334 272.967,24.9667 275.5,26C 317.289,32.0699 354.955,47.7366 388.5,73C 403.988,87.491 418.488,102.991 432,119.5C 437.497,129.831 443.497,139.831 450,149.5C 488.024,234.352 479.358,314.018 424,388.5C 417.883,393.415 413.217,399.415 410,406.5C 378.391,435.382 341.891,455.882 300.5,468C 290.776,468.945 281.109,470.278 271.5,472C 268.206,473.342 266.872,475.842 267.5,479.5C 255.265,480.82 242.931,480.82 230.5,479.5C 230.318,476.297 228.652,474.464 225.5,474C 191.515,470.34 160.182,459.34 131.5,441C 123.5,435.667 115.5,430.333 107.5,425C 82.1,403.325 61.6,377.825 46,348.5C 43.2783,340.718 39.2783,333.718 34,327.5C 33.2828,328.044 32.7828,328.711 32.5,329.5C 5.85695,251.691 16.0236,179.024 63,111.5C 116.655,43.2602 186.821,12.5935 273.5,19.5 Z"/></g>
<g><path style="opacity:1" fill="#fdef21" d="M 273.5,19.5 C 357.529,30.5735 419.029,73.5735 458,148.5C 484.604,207.295 487.604,267.295 467,328.5C 433.501,411.662 372.668,461.495 284.5,478C 278.877,479.029 273.21,479.529 267.5,479.5C 266.872,475.842 268.206,473.342 271.5,472C 281.109,470.278 290.776,468.945 300.5,468C 341.891,455.882 378.391,435.382 410,406.5C 413.217,399.415 417.883,393.415 424,388.5C 479.358,314.018 488.024,234.352 450,149.5C 443.497,139.831 437.497,129.831 432,119.5C 418.488,102.991 403.988,87.491 388.5,73C 354.955,47.7366 317.289,32.0699 275.5,26C 272.967,24.9667 271.301,23.1334 270.5,20.5C 271.325,19.6143 272.325,19.281 273.5,19.5 Z"/></g>
<g><path style="opacity:1" fill="#31312f" d="M 258.5,157.5 C 270.42,155.614 277.753,160.447 280.5,172C 266.615,225.989 252.115,279.823 237,333.5C 230.173,342.125 222.007,343.625 212.5,338C 207.718,332.383 206.218,325.883 208,318.5C 221.673,268.151 235.339,217.818 249,167.5C 251.022,162.98 254.189,159.647 258.5,157.5 Z"/></g>
<g><path style="opacity:1" fill="#31312f" d="M 178.5,188.5 C 194.006,187.171 200.839,194.171 199,209.5C 197.262,213.241 194.762,216.408 191.5,219C 178.689,228.977 166.022,239.143 153.5,249.5C 168.166,261.327 182.999,272.993 198,284.5C 203.907,294.414 202.074,302.581 192.5,309C 186.083,311.492 180.083,310.826 174.5,307C 153.713,291.214 133.213,275.048 113,258.5C 109.155,251.105 109.988,244.272 115.5,238C 136.569,221.48 157.569,204.98 178.5,188.5 Z"/></g>
<g><path style="opacity:1" fill="#31302f" d="M 310.5,188.5 C 317.932,187.588 324.266,189.755 329.5,195C 348,210.167 366.5,225.333 385,240.5C 389.209,248.902 388.043,256.402 381.5,263C 361.45,278.718 341.117,294.051 320.5,309C 308.012,312.755 300.345,308.255 297.5,295.5C 297.708,292.002 298.541,288.669 300,285.5C 314.895,273.304 330.062,261.471 345.5,250C 331,238.167 316.5,226.333 302,214.5C 295.435,202.65 298.269,193.984 310.5,188.5 Z"/></g>
<g><path style="opacity:1" fill="#fef122" d="M 230.5,479.5 C 147.87,470.647 86.037,430.314 45,358.5C 40.2704,349.045 36.1038,339.378 32.5,329.5C 32.7828,328.711 33.2828,328.044 34,327.5C 39.2783,333.718 43.2783,340.718 46,348.5C 61.6,377.825 82.1,403.325 107.5,425C 115.5,430.333 123.5,435.667 131.5,441C 160.182,459.34 191.515,470.34 225.5,474C 228.652,474.464 230.318,476.297 230.5,479.5 Z"/></g>
</svg>
